<svg width="153" height="65" viewBox="0 0 153 65" fill="none" xmlns="http://www.w3.org/2000/svg">
<path fill-rule="evenodd" clip-rule="evenodd" d="M9.57935 17.0944V26.5188H18.7427V24.1484H12.1401V18.6535H18.552V16.2831H12.1401V14.5403L9.57935 17.0944ZM14.3706 12.3156L16.7473 9.94522H18.7427V12.3156H14.3706Z" fill="#262626"/>
<path d="M25.4339 17.8802L20.8523 9.94521H23.7055L26.9336 15.5542L30.2571 9.94521H33.1039L28.3062 17.8802L33.3136 26.5188H30.4668L26.8383 20.1809L23.0637 26.5188H20.2168L25.4339 17.8802Z" fill="#262626"/>
<path d="M39.1092 9.9452C40.3827 9.86577 41.6498 10.1801 42.7377 10.8452C43.3953 11.2868 43.9298 11.8877 44.291 12.5916C44.6522 13.2956 44.8284 14.0794 44.8029 14.8697C44.8184 15.5544 44.6816 16.2339 44.4026 16.8596C44.1235 17.4853 43.709 18.0417 43.1889 18.4887C42.0391 19.4005 40.5953 19.8625 39.1283 19.7879H38.0162V26.5188H35.4744V9.9452H39.1092ZM38.0162 17.4239H39.1346C40.253 17.4239 42.242 17.1641 42.242 14.8444C42.242 12.4297 39.9861 12.3092 39.1092 12.3092H38.0162V17.4239Z" fill="#262626"/>
<path d="M49.8355 9.94521V26.5188H47.2937V9.94521H49.8355Z" fill="#262626"/>
<path d="M56.6033 9.94521C57.9568 9.94521 59.6154 9.98957 60.9943 10.9149C61.6166 11.3565 62.1213 11.943 62.4646 12.6234C62.8079 13.3038 62.9795 14.0575 62.9643 14.819C62.9942 15.9032 62.6388 16.9629 61.9608 17.8108C61.2828 18.6587 60.3259 19.24 59.2595 19.452L64.4576 26.5315H61.3693L56.6287 19.7246H56.203V26.5188H53.6611V9.94521H56.6033ZM56.1966 17.5507H57.0037C57.69 17.5507 60.4224 17.5063 60.4224 14.8507C60.4224 12.4804 58.2873 12.3156 57.0736 12.3156H56.203L56.1966 17.5507Z" fill="#262626"/>
<path d="M75.9976 12.3156H69.4015V16.2831H75.8069V18.6535H69.4015V24.1484H75.9976V26.5188H66.8342V9.94521H75.9976V12.3156Z" fill="#262626"/>
<path d="M82.6191 9.94521C85.0148 9.94521 86.9148 10.1607 88.7894 11.555C89.8117 12.3421 90.6326 13.3595 91.1849 14.5239C91.7371 15.6883 92.0051 16.9666 91.9667 18.2542C92.0006 19.5553 91.7128 20.8447 91.1288 22.0086C90.5447 23.1725 89.6824 24.1752 88.6178 24.928C86.7114 26.2779 84.8686 26.5124 82.5428 26.5124H79.0986V9.94521H82.6191ZM81.6913 24.1484H82.7589C84.3236 24.2686 85.8823 23.8503 87.1753 22.9632C87.8759 22.3983 88.4357 21.6791 88.8106 20.862C89.1854 20.0449 89.3653 19.1523 89.3359 18.2542C89.3685 17.3471 89.1932 16.4446 88.8232 15.6153C88.4532 14.7861 87.8983 14.052 87.2007 13.4691C85.7519 12.379 84.0234 12.3092 82.7525 12.3092H81.6849L81.6913 24.1484Z" fill="#262626"/>
<path d="M100.564 26.5188V8.86143L112.575 21.4105V9.94521H115.116V27.5138L103.106 14.9648V26.5188H100.564Z" fill="#262626"/>
<path d="M43.8848 40.7283H38.1656V44.7085H43.7196V47.0789H38.1402V54.9442H35.5984V38.358H43.8848V40.7283Z" fill="#262626"/>
<path d="M55.8503 50.907H48.8031L46.973 54.9442H44.2405L52.5015 37.4136L60.3621 54.9442H57.5851L55.8503 50.907ZM54.8527 48.543L52.3871 42.953L49.8452 48.543H54.8527Z" fill="#262626"/>
<path d="M64.1622 38.358C65.4903 38.358 66.9391 38.3073 68.2672 39.2326C68.8785 39.6419 69.3745 40.2004 69.7082 40.8549C70.0419 41.5094 70.2021 42.2382 70.1736 42.972C70.1969 43.5589 70.0745 44.1426 69.8173 44.6711C69.5602 45.1996 69.1761 45.6566 68.6993 46.0015C69.5506 46.2645 70.2919 46.7987 70.8095 47.5222C71.3272 48.2457 71.5927 49.1186 71.5653 50.007C71.5759 50.7165 71.4333 51.4199 71.1471 52.0695C70.8609 52.7191 70.4379 53.2997 69.9067 53.7717C68.4579 54.9442 66.6532 54.9442 65.4649 54.9442H61.6521V38.358H64.1622ZM64.2066 45.4818H64.9692C65.5411 45.4818 67.6763 45.4818 67.6763 43.0417C67.6763 40.7664 65.6364 40.722 65.0645 40.722H64.2066V45.4818ZM64.2066 52.5612H65.7254C68.4579 52.5612 68.998 51.1161 68.998 50.026C68.998 48.9359 68.3626 47.5416 65.7699 47.5416H64.2066V52.5612Z" fill="#262626"/>
<path d="M77.17 38.358V48.3528C77.1005 49.3337 77.2706 50.3167 77.6657 51.2176C77.978 51.7518 78.4308 52.1906 78.9751 52.4867C79.5195 52.7827 80.1346 52.9246 80.754 52.8971C81.3747 52.9326 81.9929 52.7941 82.5387 52.4973C83.0845 52.2004 83.5361 51.7571 83.8424 51.2176C84.2394 50.3173 84.4096 49.3338 84.338 48.3528V38.358H86.8799V49.012C86.9339 50.5922 86.3817 52.1335 85.3357 53.3217C84.7375 53.936 84.0218 54.4243 83.231 54.7577C82.4402 55.0912 81.5904 55.263 80.7318 55.263C79.8732 55.263 79.0234 55.0912 78.2326 54.7577C77.4418 54.4243 76.7261 53.936 76.1279 53.3217C75.0819 52.1335 74.5296 50.5922 74.5837 49.012V38.358H77.17Z" fill="#262626"/>
<path d="M93.2599 38.358V52.5675H98.1021V54.9442H90.699V38.358H93.2599Z" fill="#262626"/>
<path d="M116.194 46.667C116.19 48.3709 115.68 50.0356 114.728 51.4505C113.776 52.8655 112.425 53.9673 110.845 54.6168C109.266 55.2663 107.529 55.4343 105.854 55.0995C104.179 54.7648 102.64 53.9424 101.434 52.7362C100.227 51.5299 99.4058 49.9941 99.0739 48.3226C98.7419 46.6511 98.9142 44.9189 99.5689 43.345C100.224 41.7711 101.331 40.4261 102.752 39.4798C104.173 38.5335 105.843 38.0284 107.551 38.0284C108.695 38.0014 109.833 38.2065 110.895 38.6314C111.957 39.0562 112.921 39.6918 113.73 40.4997C114.538 41.3076 115.173 42.2708 115.597 43.331C116.02 44.3911 116.223 45.5261 116.194 46.667ZM113.537 46.667C113.537 42.9973 111.072 40.3925 107.558 40.3925C104.044 40.3925 101.578 42.9973 101.578 46.667C101.578 50.3366 104.044 52.8908 107.558 52.8908C111.072 52.8908 113.506 50.3176 113.506 46.667H113.537Z" fill="#262626"/>
<path d="M121.767 38.358V48.3528C121.697 49.3337 121.867 50.3167 122.262 51.2176C122.575 51.7513 123.028 52.1898 123.572 52.4857C124.117 52.7817 124.731 52.9239 125.351 52.8971C125.971 52.9326 126.59 52.7941 127.135 52.4973C127.681 52.2004 128.133 51.7571 128.439 51.2176C128.838 50.3178 129.011 49.3343 128.941 48.3528V38.358H131.483V49.012C131.538 50.5923 130.985 52.1339 129.939 53.3217C129.341 53.936 128.625 54.4243 127.834 54.7577C127.043 55.0912 126.193 55.263 125.335 55.263C124.476 55.263 123.626 55.0912 122.836 54.7577C122.045 54.4243 121.329 53.936 120.731 53.3217C119.685 52.1335 119.133 50.5922 119.187 49.012V38.358H121.767Z" fill="#262626"/>
<path fill-rule="evenodd" clip-rule="evenodd" d="M141.803 40.9882C142.133 41.2726 142.393 41.628 142.565 42.0276L144.599 40.8361C144.288 40.1999 143.856 39.6296 143.328 39.1565C142.409 38.3638 141.218 37.9572 140.004 38.0221C137.418 38.0221 135.137 39.7523 135.137 42.4269C135.137 44.7149 136.846 45.8811 138.53 46.6163L140.119 47.3007C141.072 47.7123 142.286 48.3465 142.486 49.7173L144.531 47.6772C143.753 46.232 142.279 45.4761 141.129 45.0318L139.471 44.398C138.689 44.0938 137.691 43.6184 137.691 42.3635C137.691 41.1086 138.74 40.3988 140.068 40.3988C140.701 40.3603 141.325 40.572 141.803 40.9882ZM137.393 54.7968L139.306 52.8888C139.043 52.8638 138.785 52.7954 138.542 52.6853C138.168 52.5154 137.845 52.2522 137.603 51.9211C137.157 51.3076 136.909 50.5739 136.891 49.8169L134.349 50.3619C134.468 51.5541 134.956 52.6797 135.747 53.5816C136.205 54.0974 136.766 54.5112 137.393 54.7968Z" fill="#262626"/>
<path d="M25.7743 0.941949L25.1003 0.269714L0.000320903 25.3037L0.674328 25.976L25.7743 0.941949Z" fill="#262626"/>
<path d="M152.999 39.2312L152.325 38.559L127.221 63.5975L127.895 64.2697L152.999 39.2312Z" fill="#262626"/>
</svg>
