<svg width="19" height="19" viewBox="0 0 19 19" fill="none" xmlns="http://www.w3.org/2000/svg">
<path d="M7.39344 14.7869C9.19672 14.7869 10.8361 14.1475 12.1148 13.0656L17.8525 18.8033C17.9836 18.9344 18.1475 19 18.3279 19C18.5082 19 18.6721 18.9344 18.8033 18.8033C19.0656 18.541 19.0656 18.1148 18.8033 17.8525L13.0656 12.1148C14.1311 10.8361 14.7869 9.18033 14.7869 7.39344C14.7869 3.31148 11.4754 0 7.39344 0C3.32787 0 0 3.32787 0 7.39344C0 11.4754 3.32787 14.7869 7.39344 14.7869ZM7.39344 1.34426C10.7377 1.34426 13.4426 4.06557 13.4426 7.39344C13.4426 10.7377 10.7377 13.4426 7.39344 13.4426C4.04918 13.4426 1.34426 10.7213 1.34426 7.39344C1.34426 4.06557 4.06557 1.34426 7.39344 1.34426Z" fill="#C4C4C4"/>
</svg>
